<?xml version="1.0" encoding="UTF-8"?>
<svg xmlns="http://www.w3.org/2000/svg" xmlns:xlink="http://www.w3.org/1999/xlink" width="13pt" height="13pt" viewBox="0 0 13 13" version="1.1">
<g id="surface1">
<path style=" stroke:none;fill-rule:nonzero;fill:rgb(94.117647%,65.490196%,19.607843%);fill-opacity:1;" d="M 7.175781 0.476562 C 4.496094 0.570312 2.277344 2.601562 1.902344 5.351562 L 0.320312 5.351562 L 2.605469 7.789062 L 4.890625 5.351562 L 3.445312 5.351562 C 3.800781 3.5 5.339844 2.171875 7.175781 2.101562 C 9.550781 2.011719 11.800781 2.945312 11.210938 5.386719 C 10.617188 7.824219 12.4375 9.160156 12.734375 5.441406 C 13.027344 1.71875 9.574219 0.398438 7.175781 0.476562 Z M 7.175781 0.476562 "/>
<path style=" stroke:none;fill-rule:evenodd;fill:rgb(28.627451%,61.176471%,32.941176%);fill-opacity:1;" d="M 9.871094 9.847656 L 9.871094 10.160156 C 9.871094 10.378906 9.832031 10.589844 9.78125 10.789062 L 10.789062 10.789062 L 10.789062 11.730469 L 9.292969 11.730469 C 8.828125 12.300781 8.125 12.671875 7.328125 12.671875 C 6.535156 12.671875 5.832031 12.300781 5.363281 11.730469 L 3.800781 11.730469 L 3.800781 10.789062 L 4.878906 10.789062 C 4.828125 10.589844 4.789062 10.378906 4.789062 10.160156 L 4.789062 9.847656 L 3.800781 9.847656 L 3.800781 8.910156 L 4.789062 8.910156 L 4.789062 8.28125 C 4.789062 8.171875 4.808594 8.070312 4.820312 7.96875 L 3.800781 7.96875 L 3.800781 7.027344 L 5.140625 7.027344 C 5.386719 6.617188 5.742188 6.285156 6.167969 6.0625 L 5.273438 5.183594 L 5.949219 4.519531 L 7.230469 5.78125 C 7.261719 5.78125 7.257812 5.773438 7.292969 5.773438 C 7.304688 5.773438 7.351562 5.78125 7.363281 5.78125 L 8.636719 4.519531 L 9.3125 5.183594 L 8.445312 6.039062 C 8.894531 6.257812 9.265625 6.601562 9.515625 7.027344 L 10.789062 7.027344 L 10.789062 7.96875 L 9.839844 7.96875 C 9.851562 8.070312 9.871094 8.171875 9.871094 8.28125 L 9.871094 8.910156 L 10.789062 8.910156 L 10.789062 9.847656 Z M 6.246094 8.011719 L 6.246094 8.886719 L 8.34375 8.886719 L 8.34375 8.011719 Z M 6.246094 9.757812 L 6.246094 10.632812 L 8.34375 10.632812 L 8.34375 9.757812 Z M 6.246094 9.757812 "/>
</g>
</svg>
