<?xml version="1.0" encoding="UTF-8"?>
<svg xmlns="http://www.w3.org/2000/svg" xmlns:xlink="http://www.w3.org/1999/xlink" width="80pt" height="80pt" viewBox="0 0 80 80" version="1.1">
<g id="surface1">
<path style=" stroke:none;fill-rule:nonzero;fill:rgb(92.941176%,63.529412%,0%);fill-opacity:1;" d="M 44.167969 2.941406 C 27.671875 3.5 14.003906 16.003906 11.71875 32.941406 L 1.976562 32.941406 L 16.039062 47.941406 L 30.105469 32.941406 L 21.207031 32.941406 C 23.382812 21.535156 32.859375 13.375 44.167969 12.941406 C 58.785156 12.375 72.625 18.136719 68.984375 33.140625 C 65.339844 48.144531 76.539062 56.371094 78.359375 33.476562 C 80.175781 10.578125 58.914062 2.441406 44.167969 2.941406 Z M 44.167969 2.941406 "/>
<path style=" stroke:none;fill-rule:evenodd;fill:rgb(34.901961%,65.882353%,41.176471%);fill-opacity:1;" d="M 60.746094 60.609375 L 60.746094 62.535156 C 60.746094 63.878906 60.515625 65.160156 60.191406 66.398438 L 66.390625 66.398438 L 66.390625 72.195312 L 57.195312 72.195312 C 54.328125 75.691406 49.996094 77.980469 45.101562 77.980469 C 40.210938 77.980469 35.878906 75.691406 33.011719 72.195312 L 23.378906 72.195312 L 23.378906 66.398438 L 30.023438 66.398438 C 29.699219 65.160156 29.464844 63.878906 29.464844 62.535156 L 29.464844 60.609375 L 23.378906 60.609375 L 23.378906 54.820312 L 29.464844 54.820312 L 29.464844 50.964844 C 29.464844 50.300781 29.578125 49.671875 29.660156 49.03125 L 23.378906 49.03125 L 23.378906 43.234375 L 31.644531 43.234375 C 33.144531 40.71875 35.324219 38.671875 37.960938 37.316406 L 32.460938 31.894531 L 36.609375 27.804688 L 44.496094 35.578125 C 44.695312 35.574219 44.675781 35.539062 44.886719 35.539062 C 44.953125 35.539062 45.238281 35.574219 45.308594 35.578125 L 53.15625 27.804688 L 57.308594 31.894531 L 51.96875 37.164062 C 54.726562 38.515625 57.011719 40.625 58.558594 43.234375 L 66.390625 43.234375 L 66.390625 49.03125 L 60.546875 49.03125 C 60.625 49.671875 60.746094 50.300781 60.746094 50.964844 L 60.746094 54.820312 L 66.390625 54.820312 L 66.390625 60.609375 Z M 38.429688 49.300781 L 38.429688 54.683594 L 51.339844 54.683594 L 51.339844 49.300781 Z M 38.429688 60.054688 L 38.429688 65.433594 L 51.339844 65.433594 L 51.339844 60.054688 Z M 38.429688 60.054688 "/>
</g>
</svg>
